<svg xmlns="http://www.w3.org/2000/svg" width="800" height="800" viewBox="0 0 800 800">


  <defs>
    <radialGradient id="mdp" cx="50%" cy="45%" r="65%">
      <stop offset="0%" stop-color="#F5F5F8"/>
      <stop offset="100%" stop-color="#E5E5EC"/>
    </radialGradient>
    <filter id="shadow" x="-20%" y="-20%" width="140%" height="140%">
      <feDropShadow dx="0" dy="8" stdDeviation="14" flood-color="#00000018"/>
    </filter>
    <filter id="glow" x="-20%" y="-20%" width="140%" height="140%">
      <feDropShadow dx="0" dy="0" stdDeviation="8" flood-color="#C9A84C30"/>
    </filter>
    <filter id="shdw2" x="-10%" y="-10%" width="120%" height="120%">
      <feDropShadow dx="0" dy="4" stdDeviation="8" flood-color="#00000020"/>
    </filter>
  </defs>
  <rect width="800" height="800" fill="url(#mdp)"/>
<defs>
  <linearGradient id="silver" x1="0%" y1="0%" x2="100%" y2="100%">
    <stop offset="0%" stop-color="#F0F0F0"/>
    <stop offset="35%" stop-color="#C8C8C8"/>
    <stop offset="65%" stop-color="#E8E8E8"/>
    <stop offset="100%" stop-color="#909090"/>
  </linearGradient>
  <linearGradient id="silverV" x1="0%" y1="0%" x2="0%" y2="100%">
    <stop offset="0%" stop-color="#F5F5F5"/>
    <stop offset="50%" stop-color="#B8B8B8"/>
    <stop offset="100%" stop-color="#787878"/>
  </linearGradient>
  <linearGradient id="silverSheen" x1="0%" y1="0%" x2="100%" y2="0%">
    <stop offset="0%" stop-color="#808080"/>
    <stop offset="30%" stop-color="#F0F0F0"/>
    <stop offset="60%" stop-color="#C0C0C0"/>
    <stop offset="100%" stop-color="#787878"/>
  </linearGradient>
  <linearGradient id="wgold2" x1="0%" y1="0%" x2="100%" y2="100%">
    <stop offset="0%" stop-color="#F0F0F0"/>
    <stop offset="50%" stop-color="#C8C8C8"/>
    <stop offset="100%" stop-color="#909090"/>
  </linearGradient>
</defs>
<!-- Chain -->
<rect x="396" y="130" width="8" height="5" rx="2" fill="url(#silverV)"/><rect x="398" y="141" width="4" height="8" rx="2" fill="url(#silverV)"/><rect x="396" y="152" width="8" height="5" rx="2" fill="url(#silverV)"/><rect x="398" y="163" width="4" height="8" rx="2" fill="url(#silverV)"/><rect x="396" y="174" width="8" height="5" rx="2" fill="url(#silverV)"/><rect x="398" y="185" width="4" height="8" rx="2" fill="url(#silverV)"/><rect x="396" y="196" width="8" height="5" rx="2" fill="url(#silverV)"/><rect x="398" y="207" width="4" height="8" rx="2" fill="url(#silverV)"/><rect x="396" y="218" width="8" height="5" rx="2" fill="url(#silverV)"/><rect x="398" y="229" width="4" height="8" rx="2" fill="url(#silverV)"/><rect x="396" y="240" width="8" height="5" rx="2" fill="url(#silverV)"/><rect x="398" y="251" width="4" height="8" rx="2" fill="url(#silverV)"/><rect x="396" y="262" width="8" height="5" rx="2" fill="url(#silverV)"/><rect x="398" y="273" width="4" height="8" rx="2" fill="url(#silverV)"/><rect x="396" y="284" width="8" height="5" rx="2" fill="url(#silverV)"/><rect x="398" y="295" width="4" height="8" rx="2" fill="url(#silverV)"/><rect x="396" y="306" width="8" height="5" rx="2" fill="url(#silverV)"/><rect x="398" y="317" width="4" height="8" rx="2" fill="url(#silverV)"/><rect x="396" y="328" width="8" height="5" rx="2" fill="url(#silverV)"/><rect x="398" y="339" width="4" height="8" rx="2" fill="url(#silverV)"/><rect x="396" y="350" width="8" height="5" rx="2" fill="url(#silverV)"/><rect x="398" y="361" width="4" height="8" rx="2" fill="url(#silverV)"/><rect x="396" y="372" width="8" height="5" rx="2" fill="url(#silverV)"/><rect x="398" y="383" width="4" height="8" rx="2" fill="url(#silverV)"/><rect x="396" y="394" width="8" height="5" rx="2" fill="url(#silverV)"/><rect x="398" y="405" width="4" height="8" rx="2" fill="url(#silverV)"/><rect x="396" y="416" width="8" height="5" rx="2" fill="url(#silverV)"/><rect x="398" y="427" width="4" height="8" rx="2" fill="url(#silverV)"/><rect x="396" y="438" width="8" height="5" rx="2" fill="url(#silverV)"/><rect x="398" y="449" width="4" height="8" rx="2" fill="url(#silverV)"/>
<!-- Geometric white gold pendant -->
<g filter="url(#shadow)">
  <!-- Hexagonal frame -->
  <polygon points="400,450 452,478 452,534 400,562 348,534 348,478" fill="url(#wgold2)" stroke="#C0C0C0" stroke-width="2.5"/>
  <polygon points="400,460 442,484 442,530 400,554 358,530 358,484" fill="none" stroke="#D8D8D8" stroke-width="1.2" opacity="0.5"/>
  <!-- Diamond in center -->
  
  <polygon points="400,482 416.8,498.8 421.6,513.2 400,530 378.4,513.2 383.2,498.8" fill="#E8F4FF" stroke="#AED6F1" stroke-width="0.8"/>
  <polygon points="400,482 416.8,498.8 400,506" fill="white" opacity="0.7"/>
  <polygon points="400,506 421.6,513.2 400,530" fill="#B3D9F5" opacity="0.6"/>
  <line x1="400" y1="482" x2="400" y2="530" stroke="#AED6F1" stroke-width="0.5"/>
  <!-- Prongs -->
  <line x1="420.0" y1="506.0" x2="428.0" y2="506.0" stroke="#B8B8B8" stroke-width="3"/><line x1="410.0" y1="523.3" x2="414.0" y2="530.2" stroke="#B8B8B8" stroke-width="3"/><line x1="390.0" y1="523.3" x2="386.0" y2="530.2" stroke="#B8B8B8" stroke-width="3"/><line x1="380.0" y1="506.0" x2="372.0" y2="506.0" stroke="#B8B8B8" stroke-width="3"/><line x1="390.0" y1="488.7" x2="386.0" y2="481.8" stroke="#B8B8B8" stroke-width="3"/><line x1="410.0" y1="488.7" x2="414.0" y2="481.8" stroke="#B8B8B8" stroke-width="3"/>
  <!-- Bail -->
  <rect x="388" y="438" width="24" height="16" rx="8" fill="url(#wgold2)" stroke="#C0C0C0" stroke-width="1.5"/>
</g>

<g stroke="#C9A84C" stroke-width="1.5" fill="none" opacity="0.3">
  <path d="M40,40 L40,90 M40,40 L90,40"/>
  <path d="M760,40 L760,90 M760,40 L710,40"/>
  <path d="M40,760 L40,710 M40,760 L90,760"/>
  <path d="M760,760 L760,710 M760,760 L710,760"/>
</g>

  <text x="400" y="748" font-family="Georgia,serif" font-size="10" fill="#C9A84C" text-anchor="middle" letter-spacing="4" opacity="0.7">HOUSE OF NANDA · FINE JEWELLERY</text>
  <text x="400" y="728" font-family="Georgia,serif" font-size="11" fill="#8B6914" text-anchor="middle" letter-spacing="2" opacity="0.6">IGI CERTIFIED · 18KT WHITE GOLD · MEN'S PENDANT</text>
</svg>