<svg xmlns="http://www.w3.org/2000/svg" width="800" height="800" viewBox="0 0 800 800">


  <defs>
    <radialGradient id="mb" cx="50%" cy="45%" r="65%">
      <stop offset="0%" stop-color="#F8F9FC"/>
      <stop offset="100%" stop-color="#E8ECEF"/>
    </radialGradient>
    <filter id="shadow" x="-20%" y="-20%" width="140%" height="140%">
      <feDropShadow dx="0" dy="8" stdDeviation="14" flood-color="#00000018"/>
    </filter>
    <filter id="glow" x="-20%" y="-20%" width="140%" height="140%">
      <feDropShadow dx="0" dy="0" stdDeviation="8" flood-color="#C9A84C30"/>
    </filter>
    <filter id="shdw2" x="-10%" y="-10%" width="120%" height="120%">
      <feDropShadow dx="0" dy="4" stdDeviation="8" flood-color="#00000020"/>
    </filter>
  </defs>
  <rect width="800" height="800" fill="url(#mb)"/>
<defs>
  <linearGradient id="silver" x1="0%" y1="0%" x2="100%" y2="100%">
    <stop offset="0%" stop-color="#F0F0F0"/>
    <stop offset="35%" stop-color="#C8C8C8"/>
    <stop offset="65%" stop-color="#E8E8E8"/>
    <stop offset="100%" stop-color="#909090"/>
  </linearGradient>
  <linearGradient id="silverV" x1="0%" y1="0%" x2="0%" y2="100%">
    <stop offset="0%" stop-color="#F5F5F5"/>
    <stop offset="50%" stop-color="#B8B8B8"/>
    <stop offset="100%" stop-color="#787878"/>
  </linearGradient>
  <linearGradient id="silverSheen" x1="0%" y1="0%" x2="100%" y2="0%">
    <stop offset="0%" stop-color="#808080"/>
    <stop offset="30%" stop-color="#F0F0F0"/>
    <stop offset="60%" stop-color="#C0C0C0"/>
    <stop offset="100%" stop-color="#787878"/>
  </linearGradient></defs>
<ellipse cx="400" cy="580" rx="230" ry="20" fill="#0000001A" filter="url(#shadow)"/>
<!-- Mesh bracelet - interlocking ellipses -->
<g filter="url(#shdw2)">
<!-- Main mesh band - layered approach -->
<ellipse cx="155" cy="370" rx="16" ry="55" fill="none" stroke="url(#silverSheen)" stroke-width="6" opacity="0.85"/><ellipse cx="178" cy="370" rx="16" ry="55" fill="none" stroke="url(#silverSheen)" stroke-width="6" opacity="0.85"/><ellipse cx="201" cy="370" rx="16" ry="55" fill="none" stroke="url(#silverSheen)" stroke-width="6" opacity="0.85"/><ellipse cx="224" cy="370" rx="16" ry="55" fill="none" stroke="url(#silverSheen)" stroke-width="6" opacity="0.85"/><ellipse cx="247" cy="370" rx="16" ry="55" fill="none" stroke="url(#silverSheen)" stroke-width="6" opacity="0.85"/><ellipse cx="270" cy="370" rx="16" ry="55" fill="none" stroke="url(#silverSheen)" stroke-width="6" opacity="0.85"/><ellipse cx="293" cy="370" rx="16" ry="55" fill="none" stroke="url(#silverSheen)" stroke-width="6" opacity="0.85"/><ellipse cx="316" cy="370" rx="16" ry="55" fill="none" stroke="url(#silverSheen)" stroke-width="6" opacity="0.85"/><ellipse cx="339" cy="370" rx="16" ry="55" fill="none" stroke="url(#silverSheen)" stroke-width="6" opacity="0.85"/><ellipse cx="362" cy="370" rx="16" ry="55" fill="none" stroke="url(#silverSheen)" stroke-width="6" opacity="0.85"/><ellipse cx="385" cy="370" rx="16" ry="55" fill="none" stroke="url(#silverSheen)" stroke-width="6" opacity="0.85"/><ellipse cx="408" cy="370" rx="16" ry="55" fill="none" stroke="url(#silverSheen)" stroke-width="6" opacity="0.85"/><ellipse cx="431" cy="370" rx="16" ry="55" fill="none" stroke="url(#silverSheen)" stroke-width="6" opacity="0.85"/><ellipse cx="454" cy="370" rx="16" ry="55" fill="none" stroke="url(#silverSheen)" stroke-width="6" opacity="0.85"/><ellipse cx="477" cy="370" rx="16" ry="55" fill="none" stroke="url(#silverSheen)" stroke-width="6" opacity="0.85"/><ellipse cx="500" cy="370" rx="16" ry="55" fill="none" stroke="url(#silverSheen)" stroke-width="6" opacity="0.85"/><ellipse cx="523" cy="370" rx="16" ry="55" fill="none" stroke="url(#silverSheen)" stroke-width="6" opacity="0.85"/><ellipse cx="546" cy="370" rx="16" ry="55" fill="none" stroke="url(#silverSheen)" stroke-width="6" opacity="0.85"/><ellipse cx="569" cy="370" rx="16" ry="55" fill="none" stroke="url(#silverSheen)" stroke-width="6" opacity="0.85"/><ellipse cx="592" cy="370" rx="16" ry="55" fill="none" stroke="url(#silverSheen)" stroke-width="6" opacity="0.85"/><ellipse cx="615" cy="370" rx="16" ry="55" fill="none" stroke="url(#silverSheen)" stroke-width="6" opacity="0.85"/><ellipse cx="638" cy="370" rx="16" ry="55" fill="none" stroke="url(#silverSheen)" stroke-width="6" opacity="0.85"/>
<ellipse cx="166" cy="370" rx="16" ry="55" fill="none" stroke="url(#silverV)" stroke-width="4" opacity="0.5"/><ellipse cx="189" cy="370" rx="16" ry="55" fill="none" stroke="url(#silverV)" stroke-width="4" opacity="0.5"/><ellipse cx="212" cy="370" rx="16" ry="55" fill="none" stroke="url(#silverV)" stroke-width="4" opacity="0.5"/><ellipse cx="235" cy="370" rx="16" ry="55" fill="none" stroke="url(#silverV)" stroke-width="4" opacity="0.5"/><ellipse cx="258" cy="370" rx="16" ry="55" fill="none" stroke="url(#silverV)" stroke-width="4" opacity="0.5"/><ellipse cx="281" cy="370" rx="16" ry="55" fill="none" stroke="url(#silverV)" stroke-width="4" opacity="0.5"/><ellipse cx="304" cy="370" rx="16" ry="55" fill="none" stroke="url(#silverV)" stroke-width="4" opacity="0.5"/><ellipse cx="327" cy="370" rx="16" ry="55" fill="none" stroke="url(#silverV)" stroke-width="4" opacity="0.5"/><ellipse cx="350" cy="370" rx="16" ry="55" fill="none" stroke="url(#silverV)" stroke-width="4" opacity="0.5"/><ellipse cx="373" cy="370" rx="16" ry="55" fill="none" stroke="url(#silverV)" stroke-width="4" opacity="0.5"/><ellipse cx="396" cy="370" rx="16" ry="55" fill="none" stroke="url(#silverV)" stroke-width="4" opacity="0.5"/><ellipse cx="419" cy="370" rx="16" ry="55" fill="none" stroke="url(#silverV)" stroke-width="4" opacity="0.5"/><ellipse cx="442" cy="370" rx="16" ry="55" fill="none" stroke="url(#silverV)" stroke-width="4" opacity="0.5"/><ellipse cx="465" cy="370" rx="16" ry="55" fill="none" stroke="url(#silverV)" stroke-width="4" opacity="0.5"/><ellipse cx="488" cy="370" rx="16" ry="55" fill="none" stroke="url(#silverV)" stroke-width="4" opacity="0.5"/><ellipse cx="511" cy="370" rx="16" ry="55" fill="none" stroke="url(#silverV)" stroke-width="4" opacity="0.5"/><ellipse cx="534" cy="370" rx="16" ry="55" fill="none" stroke="url(#silverV)" stroke-width="4" opacity="0.5"/><ellipse cx="557" cy="370" rx="16" ry="55" fill="none" stroke="url(#silverV)" stroke-width="4" opacity="0.5"/><ellipse cx="580" cy="370" rx="16" ry="55" fill="none" stroke="url(#silverV)" stroke-width="4" opacity="0.5"/><ellipse cx="603" cy="370" rx="16" ry="55" fill="none" stroke="url(#silverV)" stroke-width="4" opacity="0.5"/><ellipse cx="626" cy="370" rx="16" ry="55" fill="none" stroke="url(#silverV)" stroke-width="4" opacity="0.5"/>
<!-- Top and bottom rails -->
<rect x="155" y="315" width="490" height="16" rx="8" fill="url(#silverSheen)" stroke="#909090" stroke-width="1.5"/>
<rect x="155" y="425" width="490" height="16" rx="8" fill="url(#silverSheen)" stroke="#909090" stroke-width="1.5"/>
</g>
<!-- Box clasp -->
<g transform="translate(155,360)">
  <rect x="-28" y="-22" width="28" height="44" rx="8" fill="url(#silverV)" stroke="#909090" stroke-width="2"/>
  <rect x="-22" y="-14" width="16" height="28" rx="4" fill="#D8D8D8"/>
  <line x1="-8" y1="-14" x2="-8" y2="14" stroke="#B0B0B0" stroke-width="1.5"/>
</g>

<g stroke="#C9A84C" stroke-width="1.5" fill="none" opacity="0.3">
  <path d="M40,40 L40,90 M40,40 L90,40"/>
  <path d="M760,40 L760,90 M760,40 L710,40"/>
  <path d="M40,760 L40,710 M40,760 L90,760"/>
  <path d="M760,760 L760,710 M760,760 L710,760"/>
</g>

  <text x="400" y="748" font-family="Georgia,serif" font-size="10" fill="#C9A84C" text-anchor="middle" letter-spacing="4" opacity="0.7">HOUSE OF NANDA · FINE JEWELLERY</text>
  <text x="400" y="728" font-family="Georgia,serif" font-size="11" fill="#8B6914" text-anchor="middle" letter-spacing="2" opacity="0.6">925 STERLING SILVER MESH · COLUMN BRACELET</text>
</svg>