<svg xmlns="http://www.w3.org/2000/svg" width="800" height="800" viewBox="0 0 800 800">


  <defs>
    <radialGradient id="mt" cx="50%" cy="45%" r="65%">
      <stop offset="0%" stop-color="#FDF9F0"/>
      <stop offset="100%" stop-color="#EDE5CC"/>
    </radialGradient>
    <filter id="shadow" x="-20%" y="-20%" width="140%" height="140%">
      <feDropShadow dx="0" dy="8" stdDeviation="14" flood-color="#00000018"/>
    </filter>
    <filter id="glow" x="-20%" y="-20%" width="140%" height="140%">
      <feDropShadow dx="0" dy="0" stdDeviation="8" flood-color="#C9A84C30"/>
    </filter>
    <filter id="shdw2" x="-10%" y="-10%" width="120%" height="120%">
      <feDropShadow dx="0" dy="4" stdDeviation="8" flood-color="#00000020"/>
    </filter>
  </defs>
  <rect width="800" height="800" fill="url(#mt)"/>
<defs>
  <linearGradient id="gold" x1="0%" y1="0%" x2="100%" y2="100%">
    <stop offset="0%" stop-color="#E8C96D"/>
    <stop offset="35%" stop-color="#C9A84C"/>
    <stop offset="65%" stop-color="#F0D478"/>
    <stop offset="100%" stop-color="#9A7028"/>
  </linearGradient>
  <linearGradient id="goldV" x1="0%" y1="0%" x2="0%" y2="100%">
    <stop offset="0%" stop-color="#F2D878"/>
    <stop offset="50%" stop-color="#C9A84C"/>
    <stop offset="100%" stop-color="#8B6010"/>
  </linearGradient>
  <linearGradient id="goldSheen" x1="0%" y1="0%" x2="100%" y2="0%">
    <stop offset="0%" stop-color="#A07030"/>
    <stop offset="30%" stop-color="#E8C96D"/>
    <stop offset="60%" stop-color="#C9A84C"/>
    <stop offset="100%" stop-color="#906820"/>
  </linearGradient>
  <radialGradient id="beadMt" cx="35%" cy="35%">
    <stop offset="0%" stop-color="#F5E080"/>
    <stop offset="100%" stop-color="#8B6010"/>
  </radialGradient>
</defs>
<!-- Central chain from top center -->
<line x1="400" y1="120" x2="400" y2="320" stroke="url(#gold)" stroke-width="3"/>
<circle cx="400" cy="130" r="4" fill="url(#beadMt)"/><circle cx="400" cy="149" r="4" fill="url(#beadMt)"/><circle cx="400" cy="168" r="4" fill="url(#beadMt)"/><circle cx="400" cy="187" r="4" fill="url(#beadMt)"/><circle cx="400" cy="206" r="4" fill="url(#beadMt)"/><circle cx="400" cy="225" r="4" fill="url(#beadMt)"/><circle cx="400" cy="244" r="4" fill="url(#beadMt)"/><circle cx="400" cy="263" r="4" fill="url(#beadMt)"/><circle cx="400" cy="282" r="4" fill="url(#beadMt)"/><circle cx="400" cy="301" r="4" fill="url(#beadMt)"/>
<!-- Side chains going left and right -->
<path d="M 400,175 Q 280,180 160,220" fill="none" stroke="url(#gold)" stroke-width="2.5"/>
<path d="M 400,175 Q 520,180 640,220" fill="none" stroke="url(#gold)" stroke-width="2.5"/>
<!-- Beads on side chains -->
<circle cx="314" cy="177" r="5" fill="url(#beadMt)"/>
  <circle cx="486" cy="177" r="5" fill="url(#beadMt)"/><circle cx="246" cy="182" r="5" fill="url(#beadMt)"/>
  <circle cx="554" cy="182" r="5" fill="url(#beadMt)"/><circle cx="198" cy="191" r="5" fill="url(#beadMt)"/>
  <circle cx="602" cy="191" r="5" fill="url(#beadMt)"/><circle cx="170" cy="204" r="5" fill="url(#beadMt)"/>
  <circle cx="630" cy="204" r="5" fill="url(#beadMt)"/>
<!-- End pins/clips -->
<ellipse cx="160" cy="222" rx="10" ry="7" fill="url(#gold)" stroke="#8B6010" stroke-width="1"/>
<ellipse cx="640" cy="222" rx="10" ry="7" fill="url(#gold)" stroke="#8B6010" stroke-width="1"/>
<!-- Central ornament disc -->
<g filter="url(#shadow)">
  <circle cx="400" cy="340" r="48" fill="url(#goldV)" stroke="#8B6010" stroke-width="2"/>
  <circle cx="400" cy="340" r="36" fill="none" stroke="#F5E080" stroke-width="1.5" opacity="0.5"/>
  <!-- Mandana pattern inside disc -->
  <line x1="418.0" y1="340.0" x2="434.0" y2="340.0" stroke="#F5E080" stroke-width="1.2" opacity="0.5"/><line x1="412.7" y1="352.7" x2="424.0" y2="364.0" stroke="#F5E080" stroke-width="1.2" opacity="0.5"/><line x1="400.0" y1="358.0" x2="400.0" y2="374.0" stroke="#F5E080" stroke-width="1.2" opacity="0.5"/><line x1="387.3" y1="352.7" x2="376.0" y2="364.0" stroke="#F5E080" stroke-width="1.2" opacity="0.5"/><line x1="382.0" y1="340.0" x2="366.0" y2="340.0" stroke="#F5E080" stroke-width="1.2" opacity="0.5"/><line x1="387.3" y1="327.3" x2="376.0" y2="316.0" stroke="#F5E080" stroke-width="1.2" opacity="0.5"/><line x1="400.0" y1="322.0" x2="400.0" y2="306.0" stroke="#F5E080" stroke-width="1.2" opacity="0.5"/><line x1="412.7" y1="327.3" x2="424.0" y2="316.0" stroke="#F5E080" stroke-width="1.2" opacity="0.5"/>
  <circle cx="400" cy="340" r="12" fill="url(#gold)"/>
  <!-- Diamond center -->
  
  <polygon points="400,332 405.6,337.6 407.2,342.4 400,348 392.8,342.4 394.4,337.6" fill="#E8F4FF" stroke="#AED6F1" stroke-width="0.8"/>
  <polygon points="400,332 405.6,337.6 400,340" fill="white" opacity="0.7"/>
  <polygon points="400,340 407.2,342.4 400,348" fill="#B3D9F5" opacity="0.6"/>
  <line x1="400" y1="332" x2="400" y2="348" stroke="#AED6F1" stroke-width="0.5"/>
</g>
<!-- Teardrop pendant hanging below -->
<g filter="url(#shadow)">
  <line x1="400" y1="388" x2="400" y2="430" stroke="url(#gold)" stroke-width="3"/>
  <path d="M 372,430 Q 400,510 400,510 Q 428,510 428,430 Q 428,415 400,415 Z" fill="url(#goldV)" stroke="#8B6010" stroke-width="1.5"/>
  <path d="M 378,435 Q 400,495 400,495 Q 422,495 422,435" fill="none" stroke="#F5E080" stroke-width="1" opacity="0.5"/>
  
  <polygon points="400,448 408.4,456.4 410.8,463.6 400,472 389.2,463.6 391.6,456.4" fill="#E8F4FF" stroke="#AED6F1" stroke-width="0.8"/>
  <polygon points="400,448 408.4,456.4 400,460" fill="white" opacity="0.7"/>
  <polygon points="400,460 410.8,463.6 400,472" fill="#B3D9F5" opacity="0.6"/>
  <line x1="400" y1="448" x2="400" y2="472" stroke="#AED6F1" stroke-width="0.5"/>
</g>
<!-- Small pearls/gems around disc -->
<circle cx="448.0" cy="320.1" r="6" fill="url(#beadMt)" stroke="#8B6010" stroke-width="0.8"/><circle cx="448.0" cy="359.9" r="6" fill="url(#beadMt)" stroke="#8B6010" stroke-width="0.8"/><circle cx="419.9" cy="388.0" r="6" fill="url(#beadMt)" stroke="#8B6010" stroke-width="0.8"/><circle cx="380.1" cy="388.0" r="6" fill="url(#beadMt)" stroke="#8B6010" stroke-width="0.8"/><circle cx="352.0" cy="359.9" r="6" fill="url(#beadMt)" stroke="#8B6010" stroke-width="0.8"/><circle cx="352.0" cy="320.1" r="6" fill="url(#beadMt)" stroke="#8B6010" stroke-width="0.8"/><circle cx="380.1" cy="292.0" r="6" fill="url(#beadMt)" stroke="#8B6010" stroke-width="0.8"/><circle cx="419.9" cy="292.0" r="6" fill="url(#beadMt)" stroke="#8B6010" stroke-width="0.8"/>

<g stroke="#C9A84C" stroke-width="1.5" fill="none" opacity="0.3">
  <path d="M40,40 L40,90 M40,40 L90,40"/>
  <path d="M760,40 L760,90 M760,40 L710,40"/>
  <path d="M40,760 L40,710 M40,760 L90,760"/>
  <path d="M760,760 L760,710 M760,760 L710,760"/>
</g>

  <text x="400" y="748" font-family="Georgia,serif" font-size="10" fill="#C9A84C" text-anchor="middle" letter-spacing="4" opacity="0.7">HOUSE OF NANDA · FINE JEWELLERY</text>
  <text x="400" y="728" font-family="Georgia,serif" font-size="11" fill="#8B6914" text-anchor="middle" letter-spacing="2" opacity="0.6">22KT GOLD · PAHADI MAANGTIKA</text>
</svg>