<svg xmlns="http://www.w3.org/2000/svg" width="800" height="800" viewBox="0 0 800 800">


  <defs>
    <radialGradient id="mgs" cx="50%" cy="45%" r="65%">
      <stop offset="0%" stop-color="#FDF9F0"/>
      <stop offset="100%" stop-color="#EDE5CC"/>
    </radialGradient>
    <filter id="shadow" x="-20%" y="-20%" width="140%" height="140%">
      <feDropShadow dx="0" dy="8" stdDeviation="14" flood-color="#00000018"/>
    </filter>
    <filter id="glow" x="-20%" y="-20%" width="140%" height="140%">
      <feDropShadow dx="0" dy="0" stdDeviation="8" flood-color="#C9A84C30"/>
    </filter>
    <filter id="shdw2" x="-10%" y="-10%" width="120%" height="120%">
      <feDropShadow dx="0" dy="4" stdDeviation="8" flood-color="#00000020"/>
    </filter>
  </defs>
  <rect width="800" height="800" fill="url(#mgs)"/>
<defs>
  <linearGradient id="gold" x1="0%" y1="0%" x2="100%" y2="100%">
    <stop offset="0%" stop-color="#E8C96D"/>
    <stop offset="35%" stop-color="#C9A84C"/>
    <stop offset="65%" stop-color="#F0D478"/>
    <stop offset="100%" stop-color="#9A7028"/>
  </linearGradient>
  <linearGradient id="goldV" x1="0%" y1="0%" x2="0%" y2="100%">
    <stop offset="0%" stop-color="#F2D878"/>
    <stop offset="50%" stop-color="#C9A84C"/>
    <stop offset="100%" stop-color="#8B6010"/>
  </linearGradient>
  <linearGradient id="goldSheen" x1="0%" y1="0%" x2="100%" y2="0%">
    <stop offset="0%" stop-color="#A07030"/>
    <stop offset="30%" stop-color="#E8C96D"/>
    <stop offset="60%" stop-color="#C9A84C"/>
    <stop offset="100%" stop-color="#906820"/>
  </linearGradient>
  <radialGradient id="blackBead" cx="35%" cy="30%">
    <stop offset="0%" stop-color="#555555"/>
    <stop offset="100%" stop-color="#111111"/>
  </radialGradient>
</defs>
<!-- Two strands of black beads -->
<!-- Left strand -->
<path d="M 340,150 Q 330,300 320,500" fill="none" stroke="#333" stroke-width="2" opacity="0.4"/>
<circle cx="340" cy="155" r="6" fill="url(#blackBead)"/>
  <circle cx="339" cy="153.5" r="1.5" fill="#888" opacity="0.5"/><circle cx="339" cy="171" r="5" fill="url(#blackBead)"/>
  <circle cx="338" cy="187" r="5" fill="url(#blackBead)"/>
  <circle cx="337" cy="203" r="6" fill="url(#blackBead)"/>
  <circle cx="336" cy="201.5" r="1.5" fill="#888" opacity="0.5"/><circle cx="336" cy="219" r="5" fill="url(#blackBead)"/>
  <circle cx="335" cy="235" r="5" fill="url(#blackBead)"/>
  <circle cx="334" cy="251" r="6" fill="url(#blackBead)"/>
  <circle cx="333" cy="249.5" r="1.5" fill="#888" opacity="0.5"/><circle cx="333" cy="267" r="5" fill="url(#blackBead)"/>
  <circle cx="332" cy="283" r="5" fill="url(#blackBead)"/>
  <circle cx="331" cy="299" r="6" fill="url(#blackBead)"/>
  <circle cx="330" cy="297.5" r="1.5" fill="#888" opacity="0.5"/><circle cx="330" cy="315" r="5" fill="url(#blackBead)"/>
  <circle cx="329" cy="331" r="5" fill="url(#blackBead)"/>
  <circle cx="328" cy="347" r="6" fill="url(#blackBead)"/>
  <circle cx="327" cy="345.5" r="1.5" fill="#888" opacity="0.5"/><circle cx="327" cy="363" r="5" fill="url(#blackBead)"/>
  <circle cx="326" cy="379" r="5" fill="url(#blackBead)"/>
  <circle cx="325" cy="395" r="6" fill="url(#blackBead)"/>
  <circle cx="324" cy="393.5" r="1.5" fill="#888" opacity="0.5"/><circle cx="324" cy="411" r="5" fill="url(#blackBead)"/>
  <circle cx="323" cy="427" r="5" fill="url(#blackBead)"/>
  <circle cx="322" cy="443" r="6" fill="url(#blackBead)"/>
  <circle cx="321" cy="441.5" r="1.5" fill="#888" opacity="0.5"/><circle cx="321" cy="459" r="5" fill="url(#blackBead)"/>
  <circle cx="320" cy="475" r="5" fill="url(#blackBead)"/>
  <circle cx="319" cy="491" r="6" fill="url(#blackBead)"/>
  <circle cx="318" cy="489.5" r="1.5" fill="#888" opacity="0.5"/>
<!-- Right strand -->
<path d="M 460,150 Q 470,300 480,500" fill="none" stroke="#333" stroke-width="2" opacity="0.4"/>
<circle cx="460" cy="155" r="6" fill="url(#blackBead)"/><circle cx="461" cy="171" r="5" fill="url(#blackBead)"/><circle cx="462" cy="187" r="5" fill="url(#blackBead)"/><circle cx="463" cy="203" r="6" fill="url(#blackBead)"/><circle cx="464" cy="219" r="5" fill="url(#blackBead)"/><circle cx="465" cy="235" r="5" fill="url(#blackBead)"/><circle cx="466" cy="251" r="6" fill="url(#blackBead)"/><circle cx="467" cy="267" r="5" fill="url(#blackBead)"/><circle cx="468" cy="283" r="5" fill="url(#blackBead)"/><circle cx="469" cy="299" r="6" fill="url(#blackBead)"/><circle cx="470" cy="315" r="5" fill="url(#blackBead)"/><circle cx="471" cy="331" r="5" fill="url(#blackBead)"/><circle cx="472" cy="347" r="6" fill="url(#blackBead)"/><circle cx="473" cy="363" r="5" fill="url(#blackBead)"/><circle cx="474" cy="379" r="5" fill="url(#blackBead)"/><circle cx="475" cy="395" r="6" fill="url(#blackBead)"/><circle cx="476" cy="411" r="5" fill="url(#blackBead)"/><circle cx="477" cy="427" r="5" fill="url(#blackBead)"/><circle cx="478" cy="443" r="6" fill="url(#blackBead)"/><circle cx="479" cy="459" r="5" fill="url(#blackBead)"/><circle cx="480" cy="475" r="5" fill="url(#blackBead)"/><circle cx="481" cy="491" r="6" fill="url(#blackBead)"/>
<!-- Gold spacer beads scattered through strands -->
<circle cx="337" cy="203" r="7" fill="url(#goldV)" stroke="#8B6010" stroke-width="0.8"/>
  <circle cx="463" cy="203" r="7" fill="url(#goldV)" stroke="#8B6010" stroke-width="0.8"/><circle cx="333" cy="267" r="7" fill="url(#goldV)" stroke="#8B6010" stroke-width="0.8"/>
  <circle cx="467" cy="267" r="7" fill="url(#goldV)" stroke="#8B6010" stroke-width="0.8"/><circle cx="329" cy="331" r="7" fill="url(#goldV)" stroke="#8B6010" stroke-width="0.8"/>
  <circle cx="471" cy="331" r="7" fill="url(#goldV)" stroke="#8B6010" stroke-width="0.8"/><circle cx="325" cy="395" r="7" fill="url(#goldV)" stroke="#8B6010" stroke-width="0.8"/>
  <circle cx="475" cy="395" r="7" fill="url(#goldV)" stroke="#8B6010" stroke-width="0.8"/><circle cx="321" cy="459" r="7" fill="url(#goldV)" stroke="#8B6010" stroke-width="0.8"/>
  <circle cx="479" cy="459" r="7" fill="url(#goldV)" stroke="#8B6010" stroke-width="0.8"/>
<!-- Clasp top -->
<g filter="url(#glow)">
  <rect x="360" y="130" width="80" height="22" rx="11" fill="url(#goldV)" stroke="#8B6010" stroke-width="1.5"/>
  <rect x="370" y="135" width="60" height="12" rx="6" fill="#F5E080" opacity="0.3"/>
</g>
<!-- Pendant - Kedarnath spire inspired -->
<g filter="url(#shadow)" transform="translate(0,30)">
  <!-- Spire base -->
  <rect x="362" y="500" width="76" height="30" rx="8" fill="url(#goldV)" stroke="#8B6010" stroke-width="1.5"/>
  <!-- Spire tiers -->
  <rect x="370" y="475" width="60" height="28" rx="6" fill="url(#goldV)" stroke="#8B6010" stroke-width="1.2"/>
  <rect x="380" y="454" width="40" height="24" rx="5" fill="url(#goldV)" stroke="#8B6010" stroke-width="1"/>
  <rect x="390" y="436" width="20" height="20" rx="4" fill="url(#goldV)" stroke="#8B6010" stroke-width="1"/>
  <!-- Spire tip -->
  <polygon points="400,418 408,436 392,436" fill="url(#gold)" stroke="#8B6010" stroke-width="1"/>
  <!-- Decorative lines on pendant -->
  <line x1="370" y1="488" x2="430" y2="488" stroke="#F5E080" stroke-width="1" opacity="0.5"/>
  <line x1="382" y1="466" x2="418" y2="466" stroke="#F5E080" stroke-width="1" opacity="0.5"/>
</g>

<g stroke="#C9A84C" stroke-width="1.5" fill="none" opacity="0.3">
  <path d="M40,40 L40,90 M40,40 L90,40"/>
  <path d="M760,40 L760,90 M760,40 L710,40"/>
  <path d="M40,760 L40,710 M40,760 L90,760"/>
  <path d="M760,760 L760,710 M760,760 L710,760"/>
</g>

  <text x="400" y="748" font-family="Georgia,serif" font-size="10" fill="#C9A84C" text-anchor="middle" letter-spacing="4" opacity="0.7">HOUSE OF NANDA · FINE JEWELLERY</text>
  <text x="400" y="728" font-family="Georgia,serif" font-size="11" fill="#8B6914" text-anchor="middle" letter-spacing="2" opacity="0.6">22KT GOLD · PAHADI MANGALSUTRA</text>
</svg>