<svg xmlns="http://www.w3.org/2000/svg" width="800" height="800" viewBox="0 0 800 800">


  <defs>
    <radialGradient id="dmgs" cx="50%" cy="45%" r="65%">
      <stop offset="0%" stop-color="#FAFAF7"/>
      <stop offset="100%" stop-color="#F0EEF5"/>
    </radialGradient>
    <filter id="shadow" x="-20%" y="-20%" width="140%" height="140%">
      <feDropShadow dx="0" dy="8" stdDeviation="14" flood-color="#00000018"/>
    </filter>
    <filter id="glow" x="-20%" y="-20%" width="140%" height="140%">
      <feDropShadow dx="0" dy="0" stdDeviation="8" flood-color="#C9A84C30"/>
    </filter>
    <filter id="shdw2" x="-10%" y="-10%" width="120%" height="120%">
      <feDropShadow dx="0" dy="4" stdDeviation="8" flood-color="#00000020"/>
    </filter>
  </defs>
  <rect width="800" height="800" fill="url(#dmgs)"/>
<defs>
  <linearGradient id="gold" x1="0%" y1="0%" x2="100%" y2="100%">
    <stop offset="0%" stop-color="#E8C96D"/>
    <stop offset="35%" stop-color="#C9A84C"/>
    <stop offset="65%" stop-color="#F0D478"/>
    <stop offset="100%" stop-color="#9A7028"/>
  </linearGradient>
  <linearGradient id="goldV" x1="0%" y1="0%" x2="0%" y2="100%">
    <stop offset="0%" stop-color="#F2D878"/>
    <stop offset="50%" stop-color="#C9A84C"/>
    <stop offset="100%" stop-color="#8B6010"/>
  </linearGradient>
  <linearGradient id="goldSheen" x1="0%" y1="0%" x2="100%" y2="0%">
    <stop offset="0%" stop-color="#A07030"/>
    <stop offset="30%" stop-color="#E8C96D"/>
    <stop offset="60%" stop-color="#C9A84C"/>
    <stop offset="100%" stop-color="#906820"/>
  </linearGradient>
  <linearGradient id="wgold" x1="0%" y1="0%" x2="100%" y2="100%">
    <stop offset="0%" stop-color="#F5F5F5"/>
    <stop offset="50%" stop-color="#D8D8D8"/>
    <stop offset="100%" stop-color="#B0B0B0"/>
  </linearGradient>
</defs>
<!-- Slim modern chain -->
<path d="M 400,130 L 400,460" stroke="#C9A84C" stroke-width="2.5"/>
<circle cx="400" cy="130" r="2.5" fill="url(#goldV)"/><circle cx="400" cy="142" r="2.5" fill="url(#goldV)"/><circle cx="400" cy="154" r="2.5" fill="url(#goldV)"/><circle cx="400" cy="166" r="2.5" fill="url(#goldV)"/><circle cx="400" cy="178" r="2.5" fill="url(#goldV)"/><circle cx="400" cy="190" r="2.5" fill="url(#goldV)"/><circle cx="400" cy="202" r="2.5" fill="url(#goldV)"/><circle cx="400" cy="214" r="2.5" fill="url(#goldV)"/><circle cx="400" cy="226" r="2.5" fill="url(#goldV)"/><circle cx="400" cy="238" r="2.5" fill="url(#goldV)"/><circle cx="400" cy="250" r="2.5" fill="url(#goldV)"/><circle cx="400" cy="262" r="2.5" fill="url(#goldV)"/><circle cx="400" cy="274" r="2.5" fill="url(#goldV)"/><circle cx="400" cy="286" r="2.5" fill="url(#goldV)"/><circle cx="400" cy="298" r="2.5" fill="url(#goldV)"/><circle cx="400" cy="310" r="2.5" fill="url(#goldV)"/><circle cx="400" cy="322" r="2.5" fill="url(#goldV)"/><circle cx="400" cy="334" r="2.5" fill="url(#goldV)"/><circle cx="400" cy="346" r="2.5" fill="url(#goldV)"/><circle cx="400" cy="358" r="2.5" fill="url(#goldV)"/><circle cx="400" cy="370" r="2.5" fill="url(#goldV)"/><circle cx="400" cy="382" r="2.5" fill="url(#goldV)"/><circle cx="400" cy="394" r="2.5" fill="url(#goldV)"/><circle cx="400" cy="406" r="2.5" fill="url(#goldV)"/><circle cx="400" cy="418" r="2.5" fill="url(#goldV)"/><circle cx="400" cy="430" r="2.5" fill="url(#goldV)"/><circle cx="400" cy="442" r="2.5" fill="url(#goldV)"/><circle cx="400" cy="454" r="2.5" fill="url(#goldV)"/>
<!-- Modern minimal pendant -->
<g filter="url(#shadow)">
  <circle cx="400" cy="480" r="38" fill="url(#wgold)" stroke="#C9A84C" stroke-width="2.5"/>
  <circle cx="400" cy="480" r="28" fill="none" stroke="#C9A84C" stroke-width="1" opacity="0.5"/>
  <!-- Diamond solitaire in center -->
  
  <polygon points="400,462 412.6,474.6 416.2,485.4 400,498 383.8,485.4 387.4,474.6" fill="#E8F4FF" stroke="#AED6F1" stroke-width="0.8"/>
  <polygon points="400,462 412.6,474.6 400,480" fill="white" opacity="0.7"/>
  <polygon points="400,480 416.2,485.4 400,498" fill="#B3D9F5" opacity="0.6"/>
  <line x1="400" y1="462" x2="400" y2="498" stroke="#AED6F1" stroke-width="0.5"/>
  <!-- Gold prongs -->
  <line x1="413.0" y1="480.0" x2="422.0" y2="480.0" stroke="#C9A84C" stroke-width="2.5"/><line x1="400.0" y1="493.0" x2="400.0" y2="502.0" stroke="#C9A84C" stroke-width="2.5"/><line x1="387.0" y1="480.0" x2="378.0" y2="480.0" stroke="#C9A84C" stroke-width="2.5"/><line x1="400.0" y1="467.0" x2="400.0" y2="458.0" stroke="#C9A84C" stroke-width="2.5"/>
</g>
<!-- Clasp at top -->
<rect x="382" y="118" width="36" height="16" rx="8" fill="url(#goldV)" stroke="#8B6010" stroke-width="1.5"/>

<g stroke="#C9A84C" stroke-width="1.5" fill="none" opacity="0.3">
  <path d="M40,40 L40,90 M40,40 L90,40"/>
  <path d="M760,40 L760,90 M760,40 L710,40"/>
  <path d="M40,760 L40,710 M40,760 L90,760"/>
  <path d="M760,760 L760,710 M760,760 L710,760"/>
</g>

  <text x="400" y="748" font-family="Georgia,serif" font-size="10" fill="#C9A84C" text-anchor="middle" letter-spacing="4" opacity="0.7">HOUSE OF NANDA · FINE JEWELLERY</text>
  <text x="400" y="728" font-family="Georgia,serif" font-size="11" fill="#8B6914" text-anchor="middle" letter-spacing="2" opacity="0.6">LAB DIAMOND · 18KT GOLD · MANGALSUTRA</text>
</svg>