<svg xmlns="http://www.w3.org/2000/svg" width="800" height="800" viewBox="0 0 800 800">


  <defs>
    <radialGradient id="sa" cx="50%" cy="45%" r="65%">
      <stop offset="0%" stop-color="#F8F9FC"/>
      <stop offset="100%" stop-color="#E8ECEF"/>
    </radialGradient>
    <filter id="shadow" x="-20%" y="-20%" width="140%" height="140%">
      <feDropShadow dx="0" dy="8" stdDeviation="14" flood-color="#00000018"/>
    </filter>
    <filter id="glow" x="-20%" y="-20%" width="140%" height="140%">
      <feDropShadow dx="0" dy="0" stdDeviation="8" flood-color="#C9A84C30"/>
    </filter>
    <filter id="shdw2" x="-10%" y="-10%" width="120%" height="120%">
      <feDropShadow dx="0" dy="4" stdDeviation="8" flood-color="#00000020"/>
    </filter>
  </defs>
  <rect width="800" height="800" fill="url(#sa)"/>
<defs>
  <linearGradient id="silver" x1="0%" y1="0%" x2="100%" y2="100%">
    <stop offset="0%" stop-color="#F0F0F0"/>
    <stop offset="35%" stop-color="#C8C8C8"/>
    <stop offset="65%" stop-color="#E8E8E8"/>
    <stop offset="100%" stop-color="#909090"/>
  </linearGradient>
  <linearGradient id="silverV" x1="0%" y1="0%" x2="0%" y2="100%">
    <stop offset="0%" stop-color="#F5F5F5"/>
    <stop offset="50%" stop-color="#B8B8B8"/>
    <stop offset="100%" stop-color="#787878"/>
  </linearGradient>
  <linearGradient id="silverSheen" x1="0%" y1="0%" x2="100%" y2="0%">
    <stop offset="0%" stop-color="#808080"/>
    <stop offset="30%" stop-color="#F0F0F0"/>
    <stop offset="60%" stop-color="#C0C0C0"/>
    <stop offset="100%" stop-color="#787878"/>
  </linearGradient></defs>
<ellipse cx="400" cy="560" rx="230" ry="20" fill="#0000001A" filter="url(#shadow)"/>
<!-- Anklet chain oval -->
<g filter="url(#shdw2)">
<ellipse cx="400.0" cy="260.0" rx="16" ry="7" fill="url(#silverSheen)" stroke="#A0A0A0" stroke-width="1.2" transform="rotate(0.0 400.0 260.0)"/><ellipse cx="453.1" cy="263.7" rx="7" ry="16" fill="url(#silverSheen)" stroke="#A0A0A0" stroke-width="1.2" transform="rotate(15.0 453.1 263.7)"/><ellipse cx="502.5" cy="274.7" rx="16" ry="7" fill="url(#silverSheen)" stroke="#A0A0A0" stroke-width="1.2" transform="rotate(30.0 502.5 274.7)"/><ellipse cx="545.0" cy="292.2" rx="7" ry="16" fill="url(#silverSheen)" stroke="#A0A0A0" stroke-width="1.2" transform="rotate(45.0 545.0 292.2)"/><ellipse cx="577.5" cy="315.0" rx="16" ry="7" fill="url(#silverSheen)" stroke="#A0A0A0" stroke-width="1.2" transform="rotate(60.0 577.5 315.0)"/><ellipse cx="598.0" cy="341.5" rx="7" ry="16" fill="url(#silverSheen)" stroke="#A0A0A0" stroke-width="1.2" transform="rotate(75.0 598.0 341.5)"/><ellipse cx="605.0" cy="370.0" rx="16" ry="7" fill="url(#silverSheen)" stroke="#A0A0A0" stroke-width="1.2" transform="rotate(90.0 605.0 370.0)"/><ellipse cx="598.0" cy="398.5" rx="7" ry="16" fill="url(#silverSheen)" stroke="#A0A0A0" stroke-width="1.2" transform="rotate(105.0 598.0 398.5)"/><ellipse cx="577.5" cy="425.0" rx="16" ry="7" fill="url(#silverSheen)" stroke="#A0A0A0" stroke-width="1.2" transform="rotate(120.0 577.5 425.0)"/><ellipse cx="545.0" cy="447.8" rx="7" ry="16" fill="url(#silverSheen)" stroke="#A0A0A0" stroke-width="1.2" transform="rotate(135.0 545.0 447.8)"/><ellipse cx="502.5" cy="465.3" rx="16" ry="7" fill="url(#silverSheen)" stroke="#A0A0A0" stroke-width="1.2" transform="rotate(150.0 502.5 465.3)"/><ellipse cx="453.1" cy="476.3" rx="7" ry="16" fill="url(#silverSheen)" stroke="#A0A0A0" stroke-width="1.2" transform="rotate(165.0 453.1 476.3)"/><ellipse cx="400.0" cy="480.0" rx="16" ry="7" fill="url(#silverSheen)" stroke="#A0A0A0" stroke-width="1.2" transform="rotate(180.0 400.0 480.0)"/><ellipse cx="346.9" cy="476.3" rx="7" ry="16" fill="url(#silverSheen)" stroke="#A0A0A0" stroke-width="1.2" transform="rotate(195.0 346.9 476.3)"/><ellipse cx="297.5" cy="465.3" rx="16" ry="7" fill="url(#silverSheen)" stroke="#A0A0A0" stroke-width="1.2" transform="rotate(210.0 297.5 465.3)"/><ellipse cx="255.0" cy="447.8" rx="7" ry="16" fill="url(#silverSheen)" stroke="#A0A0A0" stroke-width="1.2" transform="rotate(225.0 255.0 447.8)"/><ellipse cx="222.5" cy="425.0" rx="16" ry="7" fill="url(#silverSheen)" stroke="#A0A0A0" stroke-width="1.2" transform="rotate(240.0 222.5 425.0)"/><ellipse cx="202.0" cy="398.5" rx="7" ry="16" fill="url(#silverSheen)" stroke="#A0A0A0" stroke-width="1.2" transform="rotate(255.0 202.0 398.5)"/><ellipse cx="195.0" cy="370.0" rx="16" ry="7" fill="url(#silverSheen)" stroke="#A0A0A0" stroke-width="1.2" transform="rotate(270.0 195.0 370.0)"/><ellipse cx="202.0" cy="341.5" rx="7" ry="16" fill="url(#silverSheen)" stroke="#A0A0A0" stroke-width="1.2" transform="rotate(285.0 202.0 341.5)"/><ellipse cx="222.5" cy="315.0" rx="16" ry="7" fill="url(#silverSheen)" stroke="#A0A0A0" stroke-width="1.2" transform="rotate(300.0 222.5 315.0)"/><ellipse cx="255.0" cy="292.2" rx="7" ry="16" fill="url(#silverSheen)" stroke="#A0A0A0" stroke-width="1.2" transform="rotate(315.0 255.0 292.2)"/><ellipse cx="297.5" cy="274.7" rx="16" ry="7" fill="url(#silverSheen)" stroke="#A0A0A0" stroke-width="1.2" transform="rotate(330.0 297.5 274.7)"/><ellipse cx="346.9" cy="263.7" rx="7" ry="16" fill="url(#silverSheen)" stroke="#A0A0A0" stroke-width="1.2" transform="rotate(345.0 346.9 263.7)"/>
</g>
<!-- Lobster clasp -->
<g transform="translate(394,257)">
  <rect x="-12" y="-20" width="24" height="38" rx="8" fill="url(#silverV)" stroke="#909090" stroke-width="1.5"/>
  <rect x="-5" y="-14" width="10" height="16" rx="3" fill="#D0D0D0"/>
  <circle cx="0" cy="12" r="5" fill="url(#silverSheen)"/>
</g>
<!-- Small charm drop -->
<g transform="translate(400,488)">
  <line x1="0" y1="0" x2="0" y2="20" stroke="url(#silver)" stroke-width="2"/>
  <ellipse cx="0" cy="28" rx="8" ry="12" fill="url(#silverV)" stroke="#909090" stroke-width="1.2"/>
</g>

<g stroke="#C9A84C" stroke-width="1.5" fill="none" opacity="0.3">
  <path d="M40,40 L40,90 M40,40 L90,40"/>
  <path d="M760,40 L760,90 M760,40 L710,40"/>
  <path d="M40,760 L40,710 M40,760 L90,760"/>
  <path d="M760,760 L760,710 M760,760 L710,760"/>
</g>

  <text x="400" y="748" font-family="Georgia,serif" font-size="10" fill="#C9A84C" text-anchor="middle" letter-spacing="4" opacity="0.7">HOUSE OF NANDA · FINE JEWELLERY</text>
  <text x="400" y="728" font-family="Georgia,serif" font-size="11" fill="#8B6914" text-anchor="middle" letter-spacing="2" opacity="0.6">925 STERLING SILVER · FLUID LINK ANKLET</text>
</svg>