<svg xmlns="http://www.w3.org/2000/svg" width="800" height="800" viewBox="0 0 800 800">


  <defs>
    <radialGradient id="gbc" cx="50%" cy="45%" r="65%">
      <stop offset="0%" stop-color="#FDF9F0"/>
      <stop offset="100%" stop-color="#EDE5CC"/>
    </radialGradient>
    <filter id="shadow" x="-20%" y="-20%" width="140%" height="140%">
      <feDropShadow dx="0" dy="8" stdDeviation="14" flood-color="#00000018"/>
    </filter>
    <filter id="glow" x="-20%" y="-20%" width="140%" height="140%">
      <feDropShadow dx="0" dy="0" stdDeviation="8" flood-color="#C9A84C30"/>
    </filter>
    <filter id="shdw2" x="-10%" y="-10%" width="120%" height="120%">
      <feDropShadow dx="0" dy="4" stdDeviation="8" flood-color="#00000020"/>
    </filter>
  </defs>
  <rect width="800" height="800" fill="url(#gbc)"/>
<defs>
  <linearGradient id="gold" x1="0%" y1="0%" x2="100%" y2="100%">
    <stop offset="0%" stop-color="#E8C96D"/>
    <stop offset="35%" stop-color="#C9A84C"/>
    <stop offset="65%" stop-color="#F0D478"/>
    <stop offset="100%" stop-color="#9A7028"/>
  </linearGradient>
  <linearGradient id="goldV" x1="0%" y1="0%" x2="0%" y2="100%">
    <stop offset="0%" stop-color="#F2D878"/>
    <stop offset="50%" stop-color="#C9A84C"/>
    <stop offset="100%" stop-color="#8B6010"/>
  </linearGradient>
  <linearGradient id="goldSheen" x1="0%" y1="0%" x2="100%" y2="0%">
    <stop offset="0%" stop-color="#A07030"/>
    <stop offset="30%" stop-color="#E8C96D"/>
    <stop offset="60%" stop-color="#C9A84C"/>
    <stop offset="100%" stop-color="#906820"/>
  </linearGradient></defs>
<!-- Gold box chain - U drape -->
<g filter="url(#shdw2)">
<rect x="142.0" y="437.0" width="26" height="16" rx="3" fill="url(#goldSheen)" stroke="#8B6010" stroke-width="1.2" transform="rotate(-64.0 155.0 445.0)"/>
    <rect x="145.0" y="440.0" width="8" height="10" rx="2" fill="#F5E080" opacity="0.3" transform="rotate(-64.0 155.0 445.0)"/><rect x="160.1" y="399.9" width="26" height="20" rx="4" fill="url(#goldSheen)" stroke="#8B6010" stroke-width="1.2" transform="rotate(-62.0 173.1 407.9)"/>
    <rect x="163.1" y="402.9" width="8" height="14" rx="2" fill="#F5E080" opacity="0.3" transform="rotate(-62.0 173.1 407.9)"/><rect x="178.3" y="365.7" width="26" height="16" rx="3" fill="url(#goldSheen)" stroke="#8B6010" stroke-width="1.2" transform="rotate(-60.0 191.3 373.7)"/>
    <rect x="181.3" y="368.7" width="8" height="10" rx="2" fill="#F5E080" opacity="0.3" transform="rotate(-60.0 191.3 373.7)"/><rect x="196.4" y="334.3" width="26" height="20" rx="4" fill="url(#goldSheen)" stroke="#8B6010" stroke-width="1.2" transform="rotate(-57.4 209.4 342.3)"/>
    <rect x="199.4" y="337.3" width="8" height="14" rx="2" fill="#F5E080" opacity="0.3" transform="rotate(-57.4 209.4 342.3)"/><rect x="214.6" y="305.8" width="26" height="16" rx="3" fill="url(#goldSheen)" stroke="#8B6010" stroke-width="1.2" transform="rotate(-54.8 227.6 313.8)"/>
    <rect x="217.6" y="308.8" width="8" height="10" rx="2" fill="#F5E080" opacity="0.3" transform="rotate(-54.8 227.6 313.8)"/><rect x="232.7" y="280.1" width="26" height="20" rx="4" fill="url(#goldSheen)" stroke="#8B6010" stroke-width="1.2" transform="rotate(-51.5 245.7 288.1)"/>
    <rect x="235.7" y="283.1" width="8" height="14" rx="2" fill="#F5E080" opacity="0.3" transform="rotate(-51.5 245.7 288.1)"/><rect x="250.9" y="257.2" width="26" height="16" rx="3" fill="url(#goldSheen)" stroke="#8B6010" stroke-width="1.2" transform="rotate(-47.7 263.9 265.2)"/>
    <rect x="253.9" y="260.2" width="8" height="10" rx="2" fill="#F5E080" opacity="0.3" transform="rotate(-47.7 263.9 265.2)"/><rect x="269.0" y="237.3" width="26" height="20" rx="4" fill="url(#goldSheen)" stroke="#8B6010" stroke-width="1.2" transform="rotate(-43.2 282.0 245.3)"/>
    <rect x="272.0" y="240.3" width="8" height="14" rx="2" fill="#F5E080" opacity="0.3" transform="rotate(-43.2 282.0 245.3)"/><rect x="287.2" y="220.2" width="26" height="16" rx="3" fill="url(#goldSheen)" stroke="#8B6010" stroke-width="1.2" transform="rotate(-38.3 300.2 228.2)"/>
    <rect x="290.2" y="223.2" width="8" height="10" rx="2" fill="#F5E080" opacity="0.3" transform="rotate(-38.3 300.2 228.2)"/><rect x="305.3" y="205.9" width="26" height="20" rx="4" fill="url(#goldSheen)" stroke="#8B6010" stroke-width="1.2" transform="rotate(-32.1 318.3 213.9)"/>
    <rect x="308.3" y="208.9" width="8" height="14" rx="2" fill="#F5E080" opacity="0.3" transform="rotate(-32.1 318.3 213.9)"/><rect x="323.5" y="194.5" width="26" height="16" rx="3" fill="url(#goldSheen)" stroke="#8B6010" stroke-width="1.2" transform="rotate(-25.4 336.5 202.5)"/>
    <rect x="326.5" y="197.5" width="8" height="10" rx="2" fill="#F5E080" opacity="0.3" transform="rotate(-25.4 336.5 202.5)"/><rect x="341.6" y="185.9" width="26" height="20" rx="4" fill="url(#goldSheen)" stroke="#8B6010" stroke-width="1.2" transform="rotate(-17.4 354.6 193.9)"/>
    <rect x="344.6" y="188.9" width="8" height="14" rx="2" fill="#F5E080" opacity="0.3" transform="rotate(-17.4 354.6 193.9)"/><rect x="359.8" y="180.2" width="26" height="16" rx="3" fill="url(#goldSheen)" stroke="#8B6010" stroke-width="1.2" transform="rotate(-8.8 372.8 188.2)"/>
    <rect x="362.8" y="183.2" width="8" height="10" rx="2" fill="#F5E080" opacity="0.3" transform="rotate(-8.8 372.8 188.2)"/><rect x="377.9" y="177.4" width="26" height="20" rx="4" fill="url(#goldSheen)" stroke="#8B6010" stroke-width="1.2" transform="rotate(0.0 390.9 185.4)"/>
    <rect x="380.9" y="180.4" width="8" height="14" rx="2" fill="#F5E080" opacity="0.3" transform="rotate(0.0 390.9 185.4)"/><rect x="396.1" y="177.4" width="26" height="16" rx="3" fill="url(#goldSheen)" stroke="#8B6010" stroke-width="1.2" transform="rotate(8.8 409.1 185.4)"/>
    <rect x="399.1" y="180.4" width="8" height="10" rx="2" fill="#F5E080" opacity="0.3" transform="rotate(8.8 409.1 185.4)"/><rect x="414.2" y="180.2" width="26" height="20" rx="4" fill="url(#goldSheen)" stroke="#8B6010" stroke-width="1.2" transform="rotate(17.4 427.2 188.2)"/>
    <rect x="417.2" y="183.2" width="8" height="14" rx="2" fill="#F5E080" opacity="0.3" transform="rotate(17.4 427.2 188.2)"/><rect x="432.4" y="185.9" width="26" height="16" rx="3" fill="url(#goldSheen)" stroke="#8B6010" stroke-width="1.2" transform="rotate(25.4 445.4 193.9)"/>
    <rect x="435.4" y="188.9" width="8" height="10" rx="2" fill="#F5E080" opacity="0.3" transform="rotate(25.4 445.4 193.9)"/><rect x="450.5" y="194.5" width="26" height="20" rx="4" fill="url(#goldSheen)" stroke="#8B6010" stroke-width="1.2" transform="rotate(32.1 463.5 202.5)"/>
    <rect x="453.5" y="197.5" width="8" height="14" rx="2" fill="#F5E080" opacity="0.3" transform="rotate(32.1 463.5 202.5)"/><rect x="468.7" y="205.9" width="26" height="16" rx="3" fill="url(#goldSheen)" stroke="#8B6010" stroke-width="1.2" transform="rotate(38.3 481.7 213.9)"/>
    <rect x="471.7" y="208.9" width="8" height="10" rx="2" fill="#F5E080" opacity="0.3" transform="rotate(38.3 481.7 213.9)"/><rect x="486.8" y="220.2" width="26" height="20" rx="4" fill="url(#goldSheen)" stroke="#8B6010" stroke-width="1.2" transform="rotate(43.2 499.8 228.2)"/>
    <rect x="489.8" y="223.2" width="8" height="14" rx="2" fill="#F5E080" opacity="0.3" transform="rotate(43.2 499.8 228.2)"/><rect x="505.0" y="237.3" width="26" height="16" rx="3" fill="url(#goldSheen)" stroke="#8B6010" stroke-width="1.2" transform="rotate(47.7 518.0 245.3)"/>
    <rect x="508.0" y="240.3" width="8" height="10" rx="2" fill="#F5E080" opacity="0.3" transform="rotate(47.7 518.0 245.3)"/><rect x="523.1" y="257.2" width="26" height="20" rx="4" fill="url(#goldSheen)" stroke="#8B6010" stroke-width="1.2" transform="rotate(51.5 536.1 265.2)"/>
    <rect x="526.1" y="260.2" width="8" height="14" rx="2" fill="#F5E080" opacity="0.3" transform="rotate(51.5 536.1 265.2)"/><rect x="541.3" y="280.1" width="26" height="16" rx="3" fill="url(#goldSheen)" stroke="#8B6010" stroke-width="1.2" transform="rotate(54.8 554.3 288.1)"/>
    <rect x="544.3" y="283.1" width="8" height="10" rx="2" fill="#F5E080" opacity="0.3" transform="rotate(54.8 554.3 288.1)"/><rect x="559.4" y="305.8" width="26" height="20" rx="4" fill="url(#goldSheen)" stroke="#8B6010" stroke-width="1.2" transform="rotate(57.4 572.4 313.8)"/>
    <rect x="562.4" y="308.8" width="8" height="14" rx="2" fill="#F5E080" opacity="0.3" transform="rotate(57.4 572.4 313.8)"/><rect x="577.6" y="334.3" width="26" height="16" rx="3" fill="url(#goldSheen)" stroke="#8B6010" stroke-width="1.2" transform="rotate(60.0 590.6 342.3)"/>
    <rect x="580.6" y="337.3" width="8" height="10" rx="2" fill="#F5E080" opacity="0.3" transform="rotate(60.0 590.6 342.3)"/><rect x="595.7" y="365.7" width="26" height="20" rx="4" fill="url(#goldSheen)" stroke="#8B6010" stroke-width="1.2" transform="rotate(62.0 608.7 373.7)"/>
    <rect x="598.7" y="368.7" width="8" height="14" rx="2" fill="#F5E080" opacity="0.3" transform="rotate(62.0 608.7 373.7)"/><rect x="613.9" y="399.9" width="26" height="16" rx="3" fill="url(#goldSheen)" stroke="#8B6010" stroke-width="1.2" transform="rotate(64.0 626.9 407.9)"/>
    <rect x="616.9" y="402.9" width="8" height="10" rx="2" fill="#F5E080" opacity="0.3" transform="rotate(64.0 626.9 407.9)"/>
</g>
<!-- Lobster clasp -->
<g transform="translate(155,183)">
  <rect x="-18" y="-18" width="36" height="36" rx="10" fill="url(#goldV)" stroke="#8B6010" stroke-width="2"/>
  <rect x="-8" y="-8" width="16" height="16" rx="4" fill="#E8C96D" opacity="0.5"/>
</g>

<g stroke="#C9A84C" stroke-width="1.5" fill="none" opacity="0.3">
  <path d="M40,40 L40,90 M40,40 L90,40"/>
  <path d="M760,40 L760,90 M760,40 L710,40"/>
  <path d="M40,760 L40,710 M40,760 L90,760"/>
  <path d="M760,760 L760,710 M760,760 L710,760"/>
</g>

  <text x="400" y="748" font-family="Georgia,serif" font-size="10" fill="#C9A84C" text-anchor="middle" letter-spacing="4" opacity="0.7">HOUSE OF NANDA · FINE JEWELLERY</text>
  <text x="400" y="728" font-family="Georgia,serif" font-size="11" fill="#8B6914" text-anchor="middle" letter-spacing="2" opacity="0.6">22KT BIS HALLMARK · ROYAL BOX CHAIN</text>
</svg>